<svg width="55" height="159" viewBox="0 0 400 259" fill="none" xmlns="http://www.w3.org/2000/svg">
<path d="M126.077 117.153L139.752 161.781C139.843 162.077 139.792 162.398 139.614 162.65L101.088 217.332C100.01 218.862 98.251 219.811 96.3796 219.84C29.2004 220.877 -1.27137 170.186 0.0405719 126.96C1.37187 83.0958 34.0241 39.3865 92.8416 39.3865C131.531 39.3865 158.63 68.1418 167.344 82.5194C173.618 91.9302 180.414 116.067 183.029 126.959C205.249 206.69 240.539 217.146 273.216 217.146C315.041 217.146 358.174 183.163 358.174 126.959C356.867 75.9841 307.24 42.0006 273.216 42.0006C239.643 42.0006 211.2 54.7267 189.104 95.2475C188.723 95.9467 187.708 95.9655 187.327 95.2663L165.009 54.3512C164.816 53.9959 164.857 53.5562 165.112 53.2422C192.473 19.58 225.062 0.174805 273.216 0.174805C350.332 0.174805 400 69.4488 400 126.959C400 226.296 313.734 258.972 273.216 258.972C224.07 260.018 190.871 231.524 180.414 217.146C161.593 197.279 145.56 148.744 139.896 126.96C133.622 91.4077 105.912 81.6483 92.8416 81.2125C56.244 80.1669 43.6092 111.275 41.8665 126.96C40.9013 160.742 64.3641 173.364 78.945 176.134C81.0623 176.536 83.1494 175.538 84.387 173.774L124.302 116.871C124.78 116.19 125.833 116.357 126.077 117.153Z" fill="white"/>
<path d="M232.788 112.419C233.422 112.432 234.061 112.195 234.536 111.708L261.035 84.5794C261.96 83.6311 263.508 83.6311 264.433 84.5794L268.661 88.9062C269.206 89.4644 269.408 90.2244 269.266 90.9329C269.183 91.3498 268.981 91.7489 268.661 92.0762L234.536 127.014C233.61 127.962 232.063 127.962 231.137 127.014L213.03 108.476C212.654 108.09 212.441 107.61 212.391 107.117C212.326 106.474 212.539 105.808 213.03 105.305L217.257 100.976C218.182 100.03 219.73 100.03 220.655 100.976L231.137 111.708C231.588 112.17 232.186 112.408 232.788 112.419Z" fill="white"/>
<path d="M327.275 148.939C328.193 149.836 328.193 151.289 327.275 152.185L315.328 163.861C314.411 164.758 314.411 166.21 315.328 167.107L327.275 178.783C328.193 179.68 328.193 181.132 327.275 182.029L322.375 186.818C321.458 187.714 319.971 187.714 319.053 186.818L307.106 175.142C306.189 174.245 304.702 174.245 303.784 175.142L291.837 186.818C290.92 187.714 289.432 187.714 288.515 186.818L283.615 182.029C282.698 181.132 282.698 179.68 283.615 178.783L295.562 167.107C296.48 166.21 296.48 164.758 295.562 163.861L283.615 152.185C282.698 151.289 282.698 149.836 283.615 148.939L288.515 144.15C289.432 143.254 290.92 143.254 291.837 144.15L303.784 155.826C304.428 156.456 305.353 156.644 306.164 156.389C306.508 156.281 306.833 156.093 307.106 155.826L319.053 144.15C319.971 143.254 321.458 143.254 322.375 144.15L327.275 148.939Z" fill="white"/>
<path d="M290.218 83.8682H362.128V96.9397H290.218V83.8682Z" fill="white"/>
<path d="M269.299 110.011H362.127V123.083H269.299V110.011Z" fill="white"/>
<path d="M186.932 172.755H264.074V185.826H186.932V172.755Z" fill="white"/>
<path d="M186.932 143.997H264.433L264.074 157.069H186.932V143.997Z" fill="white"/>
</svg>
